<?xml version="1.0" encoding="UTF-8" standalone="no"?>
<!-- Created with Inkscape (http://www.inkscape.org/) -->

<svg
   xmlns:dc="http://purl.org/dc/elements/1.1/"
   xmlns:cc="http://creativecommons.org/ns#"
   xmlns:rdf="http://www.w3.org/1999/02/22-rdf-syntax-ns#"
   xmlns:svg="http://www.w3.org/2000/svg"
   xmlns="http://www.w3.org/2000/svg"
   xmlns:sodipodi="http://sodipodi.sourceforge.net/DTD/sodipodi-0.dtd"
   xmlns:inkscape="http://www.inkscape.org/namespaces/inkscape"
   width="1200"
   height="399.89001"
   viewBox="0 0 317.49999 105.80424"
   id="svg6199"
   version="1.1"
   inkscape:version="0.91+devel+osxmenu r12922"
   sodipodi:docname="copr-logo.svg">
  <defs
     id="defs6201" />
  <sodipodi:namedview
     id="base"
     pagecolor="#ffffff"
     bordercolor="#666666"
     borderopacity="1.0"
     inkscape:pageopacity="0.0"
     inkscape:pageshadow="2"
     inkscape:zoom="0.7"
     inkscape:cx="1977.7742"
     inkscape:cy="159.14028"
     inkscape:document-units="mm"
     inkscape:current-layer="layer1"
     showgrid="false"
     units="px"
     inkscape:window-width="3480"
     inkscape:window-height="900"
     inkscape:window-x="0"
     inkscape:window-y="23"
     inkscape:window-maximized="0" />
  <metadata
     id="metadata6204">
    <rdf:RDF>
      <cc:Work
         rdf:about="">
        <dc:format>image/svg+xml</dc:format>
        <dc:type
           rdf:resource="http://purl.org/dc/dcmitype/StillImage" />
        <dc:title></dc:title>
      </cc:Work>
    </rdf:RDF>
  </metadata>
  <g
     inkscape:label="Layer 1"
     inkscape:groupmode="layer"
     id="layer1"
     transform="translate(0,-191.19574)">
    <rect
       y="191.53685"
       x="0.27614114"
       height="105.80423"
       width="158.96179"
       id="rect4890"
       style="opacity:1;fill:#ffffff;fill-opacity:1;fill-rule:nonzero;stroke:none;stroke-width:2.11949253;stroke-miterlimit:4;stroke-dasharray:none;stroke-opacity:1" />
    <rect
       style="opacity:1;fill:#3e6aa8;fill-opacity:1;fill-rule:nonzero;stroke:none;stroke-width:2.11949253;stroke-miterlimit:4;stroke-dasharray:none;stroke-opacity:1"
       id="rect4325"
       width="158.96179"
       height="105.80423"
       x="158.81404"
       y="191.53685" />
    <g
       transform="matrix(0.80106732,0,0,0.80106732,140.45068,-178.44207)"
       id="g4347">
      <g
         id="g4819"
         transform="matrix(0.26458333,0,0,0.26458333,20.339055,460.28101)">
        <g
           id="g4821">
          <g
             transform="translate(94.824474,-324.78779)"
             style="font-style:normal;font-weight:normal;font-size:54.17831039px;line-height:125%;font-family:sans-serif;letter-spacing:0px;word-spacing:0px;fill:#3e6aa8;fill-opacity:1;stroke:none;stroke-width:1px;stroke-linecap:butt;stroke-linejoin:miter;stroke-opacity:1"
             id="g4823">
            <path
               d="m 137.80566,644.72442 q 5.21851,0 8.58155,3.479 3.479,3.36304 3.479,8.58154 0,5.10254 -3.8269,8.92945 -17.97486,15.77148 -42.32788,15.77148 -26.904301,0 -45.922856,-19.01855 -19.018554,-19.01856 -19.018554,-45.92285 0,-26.9043 19.018554,-45.92286 19.018555,-19.01855 45.922856,-19.01855 24.46899,0 42.32788,15.77148 4.1748,3.71094 4.1748,9.16138 0,5.21851 -3.479,8.69751 -3.36304,3.479 -8.58155,3.479 -4.40673,0 -7.88574,-2.7832 -5.9143,-4.98657 -12.40844,-7.53784 -6.49415,-2.55127 -14.14795,-2.55127 -8.46558,0 -15.887455,3.24707 -7.421875,3.1311 -12.988282,8.69751 -5.566406,5.45044 -8.813476,12.87231 -3.131104,7.42188 -3.131104,15.88746 0,8.46557 3.131104,15.88745 3.24707,7.42187 8.813476,12.98828 5.566407,5.45044 12.988282,8.69751 7.421875,3.1311 15.887455,3.1311 7.6538,0 14.14795,-2.4353 6.49414,-2.55127 12.29248,-7.53784 3.24707,-2.43531 7.6538,-2.55127 z"
               style="font-style:normal;font-variant:normal;font-weight:bold;font-stretch:normal;font-size:237.5px;font-family:Comfortaa;-inkscape-font-specification:'Comfortaa Bold';letter-spacing:-7px;fill:#ffffff;fill-opacity:1"
               id="path4825"
               inkscape:connector-curvature="0" />
            <path
               d="m 311.28198,616.54449 q 0,8.34961 3.13111,15.77148 3.24707,7.42188 8.69751,12.98828 5.45044,5.45044 12.87231,8.69751 7.42188,3.24707 16.00342,3.24707 8.46557,0 15.88745,-3.24707 7.42187,-3.24707 12.87231,-8.81348 5.56641,-5.5664 8.69751,-12.87231 3.24707,-7.42187 3.24707,-15.77148 0,-8.34961 -3.24707,-15.65552 -3.1311,-7.42188 -8.69751,-12.98828 -5.45044,-5.56641 -12.87231,-8.81348 -7.42188,-3.24707 -15.88745,-3.24707 -8.58154,0 -16.00342,3.24707 -7.42187,3.24707 -12.87231,8.81348 -5.45044,5.45044 -8.69751,12.87231 -3.13111,7.42188 -3.13111,15.77149 z m 40.70435,64.9414 q -23.30933,0 -40.70435,-14.26391 l 0,57.86743 q 0,5.2185 -3.59497,8.58154 -3.479,3.479 -8.58154,3.479 -5.21851,0 -8.69751,-3.479 -3.36304,-3.36304 -3.36304,-8.58154 l 0,-108.54492 q 0,-26.9043 19.01856,-45.92286 19.01855,-19.01855 45.92285,-19.01855 26.67236,0 45.92285,19.01855 9.50928,9.39331 14.26392,20.98999 4.75463,11.48072 4.75463,24.93287 0,27.13623 -19.01855,45.92285 -9.74121,9.62524 -21.22192,14.37988 -11.36475,4.63867 -24.70093,4.63867 z"
               style="font-style:normal;font-variant:normal;font-weight:bold;font-stretch:normal;font-size:237.5px;font-family:Comfortaa;-inkscape-font-specification:'Comfortaa Bold';letter-spacing:-7px;fill:#ffffff;fill-opacity:1"
               id="path4827"
               inkscape:connector-curvature="0" />
            <path
               d="m 452.25562,563.66363 0,2.31933 q 8.6975,-6.95801 18.90258,-10.66894 10.20508,-3.71094 21.80176,-3.71094 5.10254,0 10.90088,0.6958 5.91431,0.6958 10.78491,2.55127 4.98657,1.7395 8.23364,4.87061 3.24707,3.1311 3.24707,8.11767 0,2.55127 -1.0437,4.75464 -0.92773,2.20337 -2.55127,3.94287 -1.62353,1.62354 -3.8269,2.55127 -2.20337,0.92773 -4.75464,0.92773 -2.20337,0 -5.10254,-1.27563 -7.30591,-2.89917 -15.88745,-2.89917 -8.46558,0 -15.88745,3.24707 -7.42188,3.1311 -12.98828,8.69751 -5.45044,5.45044 -8.69751,12.87231 -3.1311,7.42188 -3.1311,15.88746 l 0,52.88086 q 0,4.98657 -3.59498,8.58154 -3.479,3.479 -8.46557,3.479 -5.10254,0 -8.69751,-3.479 -3.47901,-3.59497 -3.47901,-8.58154 l 0,-105.76172 q 0,-4.98658 3.47901,-8.46558 3.59497,-3.59497 8.69751,-3.59497 4.98657,0 8.46557,3.59497 3.59498,3.479 3.59498,8.46558 z"
               style="font-style:normal;font-variant:normal;font-weight:bold;font-stretch:normal;font-size:237.5px;font-family:Comfortaa;-inkscape-font-specification:'Comfortaa Bold';letter-spacing:-7px;fill:#ffffff;fill-opacity:1"
               id="path4829"
               inkscape:connector-curvature="0" />
          </g>
          <path
             inkscape:connector-curvature="0"
             id="path4831"
             d="m 364.32606,329.34307 a 65.077065,64.922844 59.999916 0 1 -90.49613,15.65744 65.077065,64.922844 59.999916 0 1 -15.82486,-90.63592 65.077065,64.922844 59.999916 0 1 90.49614,-15.65744 65.077065,64.922844 59.999916 0 1 15.82485,90.63592 z"
             style="opacity:1;fill:#d38d5f;fill-opacity:1;fill-rule:nonzero;stroke:none;stroke-width:7;stroke-linecap:round;stroke-linejoin:round;stroke-miterlimit:4;stroke-dasharray:none;stroke-opacity:1" />
          <path
             inkscape:connector-curvature="0"
             id="path4833"
             d="m 350.74597,319.42174 a 48.374027,48.024612 73.850848 0 1 -66.82672,12.1493 48.374027,48.024612 73.850848 0 1 -12.33402,-67.28504 48.374027,48.024612 73.850848 0 1 66.82671,-12.14929 48.374027,48.024612 73.850848 0 1 12.33403,67.28503 z"
             style="opacity:1;fill:#784421;fill-opacity:1;fill-rule:nonzero;stroke:none;stroke-width:7;stroke-linecap:round;stroke-linejoin:round;stroke-miterlimit:4;stroke-dasharray:none;stroke-opacity:1" />
          <path
             transform="translate(0,52.36216)"
             id="path4835"
             d="m 344.42773,189.35352 c 0,0 -18.71075,3.26026 -36.63671,16.98046 -17.92597,13.72021 -35.18228,38.4547 -32.39844,79.46094 l 8.69336,-0.58984 c -2.6071,-38.40282 12.85692,-59.59555 29,-71.95117 16.14308,-12.35561 32.84961,-15.32032 32.84961,-15.32032 l -1.50782,-8.58007 z"
             style="color:#000000;font-style:normal;font-variant:normal;font-weight:normal;font-stretch:normal;font-size:medium;line-height:normal;font-family:sans-serif;text-indent:0;text-align:start;text-decoration:none;text-decoration-line:none;text-decoration-style:solid;text-decoration-color:#000000;letter-spacing:normal;word-spacing:normal;text-transform:none;direction:ltr;block-progression:tb;writing-mode:lr-tb;baseline-shift:baseline;text-anchor:start;white-space:normal;clip-rule:nonzero;display:inline;overflow:visible;visibility:visible;opacity:1;isolation:auto;mix-blend-mode:normal;color-interpolation:sRGB;color-interpolation-filters:linearRGB;solid-color:#000000;solid-opacity:1;fill:#d38d5f;fill-opacity:1;fill-rule:evenodd;stroke:none;stroke-width:8.71248531;stroke-linecap:butt;stroke-linejoin:miter;stroke-miterlimit:4;stroke-dasharray:none;stroke-dashoffset:0;stroke-opacity:1;color-rendering:auto;image-rendering:auto;shape-rendering:auto;text-rendering:auto;enable-background:accumulate"
             inkscape:connector-curvature="0" />
          <path
             transform="translate(0,52.36216)"
             id="path4837"
             d="m 347.69336,190.55859 -8.60156,1.39063 c 0,0 2.67433,16.726 -3.72071,36.0039 -6.39503,19.2779 -21.37539,40.81909 -58.5664,50.95313 l 2.29101,8.40625 c 39.70203,-10.81826 57.44192,-35.20313 64.54492,-56.61523 7.10301,-21.41209 4.05274,-40.13868 4.05274,-40.13868 z"
             style="color:#000000;font-style:normal;font-variant:normal;font-weight:normal;font-stretch:normal;font-size:medium;line-height:normal;font-family:sans-serif;text-indent:0;text-align:start;text-decoration:none;text-decoration-line:none;text-decoration-style:solid;text-decoration-color:#000000;letter-spacing:normal;word-spacing:normal;text-transform:none;direction:ltr;block-progression:tb;writing-mode:lr-tb;baseline-shift:baseline;text-anchor:start;white-space:normal;clip-rule:nonzero;display:inline;overflow:visible;visibility:visible;opacity:1;isolation:auto;mix-blend-mode:normal;color-interpolation:sRGB;color-interpolation-filters:linearRGB;solid-color:#000000;solid-opacity:1;fill:#d38d5f;fill-opacity:1;fill-rule:evenodd;stroke:none;stroke-width:8.71248531;stroke-linecap:butt;stroke-linejoin:miter;stroke-miterlimit:4;stroke-dasharray:none;stroke-dashoffset:0;stroke-opacity:1;color-rendering:auto;image-rendering:auto;shape-rendering:auto;text-rendering:auto;enable-background:accumulate"
             inkscape:connector-curvature="0" />
        </g>
        <path
           inkscape:connector-curvature="0"
           id="path4839"
           style="font-style:normal;font-variant:normal;font-weight:bold;font-stretch:normal;font-size:medium;line-height:125%;font-family:Comfortaa;-inkscape-font-specification:'Comfortaa Bold';text-align:start;letter-spacing:0px;word-spacing:0px;text-anchor:start;fill:#ffffff;fill-opacity:1;stroke:none;stroke-width:1px;stroke-linecap:butt;stroke-linejoin:miter;stroke-opacity:1"
           d="m 640.44434,230.49284 -3.89249,0 0,12.63335 q 0,0.43359 -0.30549,0.73907 -0.30549,0.30549 -0.73908,0.30549 -0.43359,0 -0.73908,-0.30549 -0.30548,-0.30548 -0.30548,-0.73907 l 0,-12.63335 -3.8925,0 q -0.43359,0 -0.73907,-0.30549 -0.30549,-0.30548 -0.30549,-0.73907 0,-0.4336 0.30549,-0.73908 0.30548,-0.3055 0.73907,-0.3055 l 9.87412,0 q 0.43359,0 0.73908,0.3055 0.30548,0.30548 0.30548,0.73908 0,0.43359 -0.30548,0.73907 -0.30549,0.30549 -0.73908,0.30549 z" />
        <path
           inkscape:connector-curvature="0"
           id="path4841"
           style="font-style:normal;font-variant:normal;font-weight:bold;font-stretch:normal;font-size:medium;line-height:125%;font-family:Comfortaa;-inkscape-font-specification:'Comfortaa Bold';text-align:start;letter-spacing:0px;word-spacing:0px;text-anchor:start;fill:#ffffff;fill-opacity:1;stroke:none;stroke-width:1px;stroke-linecap:butt;stroke-linejoin:miter;stroke-opacity:1"
           d="m 642.95721,243.12619 0,-13.67791 q 0,-0.2168 0.0788,-0.40404 0.0788,-0.19709 0.21679,-0.33504 0.14782,-0.14782 0.33505,-0.22666 0.18724,-0.0788 0.41389,-0.0788 0.61097,0 0.92631,0.56171 l 5.91264,11.81543 5.91264,-11.81543 q 0.35477,-0.56171 0.92632,-0.56171 0.2168,0 0.40403,0.0788 0.19709,0.0788 0.33505,0.22666 0.14781,0.13795 0.22665,0.33504 0.0788,0.18724 0.0788,0.40404 l 0,13.67791 q 0,0.43359 -0.30549,0.73907 -0.30548,0.30549 -0.73908,0.30549 -0.4336,0 -0.73908,-0.30549 -0.30549,-0.30548 -0.30549,-0.73907 l 0,-9.24343 -4.88778,9.76571 q -0.30549,0.52228 -0.90661,0.52228 -0.65039,0 -0.95587,-0.63068 l -4.83851,-9.65731 0,9.24343 q 0,0.43359 -0.30549,0.73907 -0.30548,0.30549 -0.73908,0.30549 -0.4336,0 -0.73908,-0.30549 -0.30549,-0.30548 -0.30549,-0.73907 z" />
      </g>
      <g
         id="g4318"
         transform="matrix(0.26458333,0,0,0.26458333,-169.19887,436.74964)">
        <path
           style="fill:#ffffff;fill-opacity:1;fill-rule:nonzero;stroke:none;stroke-width:1.87936854"
           d="m 993.22477,215.4659 c -3.0424,0 -5.52052,2.36158 -5.52052,5.40277 l 0,29.07186 c -2.8161,-5.18314 -8.87967,-8.69226 -16.092,-8.69226 -14.64852,0 -24.43167,11.07982 -24.43167,25.84125 0,14.76185 10.12137,25.78237 24.43167,25.78237 6.38342,0 11.89664,-2.64439 15.21091,-7.2238 l 1.23365,3.11284 c 0.75962,2.1352 2.83415,3.64133 5.22684,3.64133 3.02806,2e-5 5.46165,-2.42118 5.46165,-5.46165 l 0,-0.0589 0,-66.01306 c 0,-3.04119 -2.47812,-5.40277 -5.52053,-5.40277 z m -112.46872,0.11705 c -11.41121,0 -20.67257,9.26159 -20.67257,20.67328 l 0,6.4605 -6.75418,0 c -2.4788,0 -4.52242,2.04451 -4.52242,4.52241 0,2.48041 2.04362,4.99203 4.52242,4.99203 l 6.75418,0 0,34.65056 c 0,3.04189 2.47881,5.52053 5.52053,5.52053 3.04314,0 5.52053,-2.47864 5.52053,-5.52053 l 0,-34.65056 7.45864,0 c 2.47859,0 4.52238,-2.51162 4.52238,-4.99203 0,-2.4779 -2.04379,-4.52241 -4.52238,-4.52241 l -7.45864,0 0,-6.4605 c 0,-5.32115 4.31049,-10.33665 9.63151,-10.33665 0.47945,0 0.99524,-0.011 1.46847,0.0589 3.01793,0.44679 5.83678,-0.91651 6.28454,-3.93503 0.44538,-3.01711 -1.68105,-5.77788 -4.69836,-6.22568 -1.00704,-0.14897 -2.03551,-0.23482 -3.05465,-0.23482 z m 32.4195,25.66532 c -14.3103,0 -25.4305,11.53089 -25.4305,25.84125 0,14.31127 11.47281,25.78237 25.78307,25.78237 7.88823,0 15.88195,-3.38702 20.61443,-8.45674 1.01463,-1.01516 1.58548,-2.34252 1.58548,-3.58246 0,-0.90073 -0.31654,-1.79552 -0.88108,-2.58434 -0.90073,-1.12658 -2.289,-1.82031 -3.64134,-1.82031 -1.01416,0 -1.9121,0.2068 -2.70139,0.99812 -3.94415,3.83023 -8.87763,6.22568 -14.62422,6.22568 -8.11263,0 -14.17783,-5.66663 -14.74132,-13.21467 l 34.76832,0 c 2.14117,0 4.11167,-1.4408 4.11167,-3.58246 0,-14.5356 -10.64523,-25.60644 -24.84312,-25.60644 z m 120.27995,0 c -14.3104,0 -25.842,11.53089 -25.842,25.84125 0,14.31127 11.5316,25.78237 25.842,25.78237 14.3116,0 25.7822,-11.47111 25.7822,-25.78237 0,-14.31036 -11.4706,-25.84125 -25.7822,-25.84125 z m 63.0171,0 c -7.5598,0 -12.5579,2.25714 -16.973,7.87007 l -0.4115,-2.64323 c -0.3427,-2.72543 -2.647,-4.81539 -5.4616,-4.81539 -3.0538,0 -5.5205,2.46522 -5.5205,5.52054 l 0,0.0589 0,39.64259 c 0,3.04189 2.4776,5.52053 5.5205,5.52053 3.0423,0 5.5204,-2.47864 5.5204,-5.52053 l 0,-21.26067 c 0,-9.69028 8.4239,-14.56466 17.3257,-14.56466 2.7047,0 4.8743,-2.22841 4.8743,-4.93315 0,-2.70416 -2.1695,-4.87498 -4.8743,-4.87498 z m 32.4777,0 c -14.3113,0 -25.9002,11.53089 -25.9002,25.84125 0,14.31126 11.2666,25.78237 24.9021,25.78237 6.8048,0 12.8899,-3.50554 15.6223,-7.16492 l 1.3508,3.40652 c 0.7219,1.91834 2.5868,3.28877 4.7572,3.28877 2.7973,2e-5 5.0462,-2.25563 5.0502,-5.05091 l 0,-13.21396 0,-7.04787 c 0.1129,-13.8592 -9.7816,-25.84125 -25.7824,-25.84125 z m -215.77475,9.27964 c 7.43713,0 12.84612,5.28533 13.86024,12.15696 0,0 -10.70603,0 -27.72044,0 1.12599,-7.20988 6.31066,-12.15696 13.8602,-12.15696 z m 59.78737,0.52849 c 9.01529,0 14.74133,6.90539 14.74133,16.03312 0,9.12569 -5.72604,15.97493 -14.74133,15.97493 -9.01383,0 -14.74128,-7.18691 -14.74128,-15.97493 0,-8.78806 5.72745,-16.03312 14.74128,-16.03312 z m 60.49258,0 c 9.0146,0 14.8583,7.24506 14.8583,16.03312 0,8.78802 -5.8437,15.97493 -14.8583,15.97493 -9.0138,0 -14.918,-7.18691 -14.918,-15.97493 0,-8.78805 5.9042,-16.03312 14.918,-16.03312 z m 95.4948,0 c 9.0143,0 14.859,7.24507 14.859,16.03312 0,8.78802 -5.8447,15.97493 -14.859,15.97493 -9.0153,0 -14.8584,-7.18691 -14.8584,-15.97493 0,-8.78806 5.8431,-16.03312 14.8584,-16.03312 z"
           id="path4267"
           inkscape:connector-curvature="0" />
        <path
           d="m 1168.9823,282.38877 -2.7079,0 0,8.78877 q 0,0.30164 -0.2125,0.51416 -0.2126,0.21252 -0.5142,0.21252 -0.3017,0 -0.5142,-0.21252 -0.2125,-0.21252 -0.2125,-0.51416 l 0,-8.78877 -2.708,0 q -0.3015,0 -0.5141,-0.21253 -0.2125,-0.21251 -0.2125,-0.51415 0,-0.30165 0.2125,-0.51417 0.2126,-0.21253 0.5141,-0.21253 l 6.8693,0 q 0.3017,0 0.5141,0.21253 0.2126,0.21252 0.2126,0.51417 0,0.30164 -0.2126,0.51415 -0.2124,0.21253 -0.5141,0.21253 z"
           style="font-style:normal;font-variant:normal;font-weight:bold;font-stretch:normal;font-size:medium;line-height:125%;font-family:Comfortaa;-inkscape-font-specification:'Comfortaa Bold';text-align:start;letter-spacing:0px;word-spacing:0px;text-anchor:start;fill:#ffffff;fill-opacity:1;stroke:none;stroke-width:0.69568026px;stroke-linecap:butt;stroke-linejoin:miter;stroke-opacity:1"
           id="path4297"
           inkscape:connector-curvature="0" />
        <path
           d="m 1170.7304,291.17754 0,-9.51545 q 0,-0.15083 0.055,-0.28108 0.055,-0.13712 0.1508,-0.23309 0.1028,-0.10283 0.2331,-0.15768 0.1303,-0.0548 0.288,-0.0548 0.425,0 0.6444,0.39077 l 4.1133,8.21976 4.1133,-8.21976 q 0.2468,-0.39077 0.6444,-0.39077 0.1508,0 0.2811,0.0548 0.1371,0.0548 0.2331,0.15768 0.1028,0.096 0.1576,0.23309 0.055,0.13025 0.055,0.28108 l 0,9.51545 q 0,0.30164 -0.2125,0.51416 -0.2126,0.21252 -0.5142,0.21252 -0.3017,0 -0.5141,-0.21252 -0.2125,-0.21252 -0.2125,-0.51416 l 0,-6.43047 -3.4004,6.79381 q -0.2125,0.36334 -0.6307,0.36334 -0.4525,0 -0.665,-0.43875 l -3.366,-6.7184 0,6.43047 q 0,0.30164 -0.2126,0.51416 -0.2125,0.21252 -0.5142,0.21252 -0.3016,0 -0.5141,-0.21252 -0.2125,-0.21252 -0.2125,-0.51416 z"
           style="font-style:normal;font-variant:normal;font-weight:bold;font-stretch:normal;font-size:medium;line-height:125%;font-family:Comfortaa;-inkscape-font-specification:'Comfortaa Bold';text-align:start;letter-spacing:0px;word-spacing:0px;text-anchor:start;fill:#ffffff;fill-opacity:1;stroke:none;stroke-width:0.69568026px;stroke-linecap:butt;stroke-linejoin:miter;stroke-opacity:1"
           id="path4299"
           inkscape:connector-curvature="0" />
      </g>
    </g>
    <g
       id="g4453"
       transform="matrix(0.80106732,0,0,0.80106732,-20.20416,-179.60499)">
      <g
         transform="matrix(0.26458333,0,0,0.26458333,20.339055,460.28101)"
         id="g4455">
        <g
           id="g4457">
          <g
             id="g4459"
             style="font-style:normal;font-weight:normal;font-size:54.17831039px;line-height:125%;font-family:sans-serif;letter-spacing:0px;word-spacing:0px;fill:#3e6aa8;fill-opacity:1;stroke:none;stroke-width:1px;stroke-linecap:butt;stroke-linejoin:miter;stroke-opacity:1"
             transform="translate(94.824474,-324.78779)">
            <path
               inkscape:connector-curvature="0"
               id="path4461"
               style="font-style:normal;font-variant:normal;font-weight:bold;font-stretch:normal;font-size:237.5px;font-family:Comfortaa;-inkscape-font-specification:'Comfortaa Bold';letter-spacing:-7px;fill:#3e6aa8;fill-opacity:1"
               d="m 137.80566,644.72442 q 5.21851,0 8.58155,3.479 3.479,3.36304 3.479,8.58154 0,5.10254 -3.8269,8.92945 -17.97486,15.77148 -42.32788,15.77148 -26.904301,0 -45.922856,-19.01855 -19.018554,-19.01856 -19.018554,-45.92285 0,-26.9043 19.018554,-45.92286 19.018555,-19.01855 45.922856,-19.01855 24.46899,0 42.32788,15.77148 4.1748,3.71094 4.1748,9.16138 0,5.21851 -3.479,8.69751 -3.36304,3.479 -8.58155,3.479 -4.40673,0 -7.88574,-2.7832 -5.9143,-4.98657 -12.40844,-7.53784 -6.49415,-2.55127 -14.14795,-2.55127 -8.46558,0 -15.887455,3.24707 -7.421875,3.1311 -12.988282,8.69751 -5.566406,5.45044 -8.813476,12.87231 -3.131104,7.42188 -3.131104,15.88746 0,8.46557 3.131104,15.88745 3.24707,7.42187 8.813476,12.98828 5.566407,5.45044 12.988282,8.69751 7.421875,3.1311 15.887455,3.1311 7.6538,0 14.14795,-2.4353 6.49414,-2.55127 12.29248,-7.53784 3.24707,-2.43531 7.6538,-2.55127 z" />
            <path
               inkscape:connector-curvature="0"
               id="path4463"
               style="font-style:normal;font-variant:normal;font-weight:bold;font-stretch:normal;font-size:237.5px;font-family:Comfortaa;-inkscape-font-specification:'Comfortaa Bold';letter-spacing:-7px;fill:#3e6aa8;fill-opacity:1"
               d="m 311.28198,616.54449 q 0,8.34961 3.13111,15.77148 3.24707,7.42188 8.69751,12.98828 5.45044,5.45044 12.87231,8.69751 7.42188,3.24707 16.00342,3.24707 8.46557,0 15.88745,-3.24707 7.42187,-3.24707 12.87231,-8.81348 5.56641,-5.5664 8.69751,-12.87231 3.24707,-7.42187 3.24707,-15.77148 0,-8.34961 -3.24707,-15.65552 -3.1311,-7.42188 -8.69751,-12.98828 -5.45044,-5.56641 -12.87231,-8.81348 -7.42188,-3.24707 -15.88745,-3.24707 -8.58154,0 -16.00342,3.24707 -7.42187,3.24707 -12.87231,8.81348 -5.45044,5.45044 -8.69751,12.87231 -3.13111,7.42188 -3.13111,15.77149 z m 40.70435,64.9414 q -23.30933,0 -40.70435,-14.26391 l 0,57.86743 q 0,5.2185 -3.59497,8.58154 -3.479,3.479 -8.58154,3.479 -5.21851,0 -8.69751,-3.479 -3.36304,-3.36304 -3.36304,-8.58154 l 0,-108.54492 q 0,-26.9043 19.01856,-45.92286 19.01855,-19.01855 45.92285,-19.01855 26.67236,0 45.92285,19.01855 9.50928,9.39331 14.26392,20.98999 4.75463,11.48072 4.75463,24.93287 0,27.13623 -19.01855,45.92285 -9.74121,9.62524 -21.22192,14.37988 -11.36475,4.63867 -24.70093,4.63867 z" />
            <path
               inkscape:connector-curvature="0"
               id="path4465"
               style="font-style:normal;font-variant:normal;font-weight:bold;font-stretch:normal;font-size:237.5px;font-family:Comfortaa;-inkscape-font-specification:'Comfortaa Bold';letter-spacing:-7px;fill:#3e6aa8;fill-opacity:1"
               d="m 452.25562,563.66363 0,2.31933 q 8.6975,-6.95801 18.90258,-10.66894 10.20508,-3.71094 21.80176,-3.71094 5.10254,0 10.90088,0.6958 5.91431,0.6958 10.78491,2.55127 4.98657,1.7395 8.23364,4.87061 3.24707,3.1311 3.24707,8.11767 0,2.55127 -1.0437,4.75464 -0.92773,2.20337 -2.55127,3.94287 -1.62353,1.62354 -3.8269,2.55127 -2.20337,0.92773 -4.75464,0.92773 -2.20337,0 -5.10254,-1.27563 -7.30591,-2.89917 -15.88745,-2.89917 -8.46558,0 -15.88745,3.24707 -7.42188,3.1311 -12.98828,8.69751 -5.45044,5.45044 -8.69751,12.87231 -3.1311,7.42188 -3.1311,15.88746 l 0,52.88086 q 0,4.98657 -3.59498,8.58154 -3.479,3.479 -8.46557,3.479 -5.10254,0 -8.69751,-3.479 -3.47901,-3.59497 -3.47901,-8.58154 l 0,-105.76172 q 0,-4.98658 3.47901,-8.46558 3.59497,-3.59497 8.69751,-3.59497 4.98657,0 8.46557,3.59497 3.59498,3.479 3.59498,8.46558 z" />
          </g>
          <path
             style="opacity:1;fill:#d38d5f;fill-opacity:1;fill-rule:nonzero;stroke:none;stroke-width:7;stroke-linecap:round;stroke-linejoin:round;stroke-miterlimit:4;stroke-dasharray:none;stroke-opacity:1"
             d="m 364.32606,329.34307 a 65.077065,64.922844 59.999916 0 1 -90.49613,15.65744 65.077065,64.922844 59.999916 0 1 -15.82486,-90.63592 65.077065,64.922844 59.999916 0 1 90.49614,-15.65744 65.077065,64.922844 59.999916 0 1 15.82485,90.63592 z"
             id="path4467"
             inkscape:connector-curvature="0" />
          <path
             style="opacity:1;fill:#784421;fill-opacity:1;fill-rule:nonzero;stroke:none;stroke-width:7;stroke-linecap:round;stroke-linejoin:round;stroke-miterlimit:4;stroke-dasharray:none;stroke-opacity:1"
             d="m 350.74597,319.42174 a 48.374027,48.024612 73.850848 0 1 -66.82672,12.1493 48.374027,48.024612 73.850848 0 1 -12.33402,-67.28504 48.374027,48.024612 73.850848 0 1 66.82671,-12.14929 48.374027,48.024612 73.850848 0 1 12.33403,67.28503 z"
             id="path4469"
             inkscape:connector-curvature="0" />
          <path
             inkscape:connector-curvature="0"
             style="color:#000000;font-style:normal;font-variant:normal;font-weight:normal;font-stretch:normal;font-size:medium;line-height:normal;font-family:sans-serif;text-indent:0;text-align:start;text-decoration:none;text-decoration-line:none;text-decoration-style:solid;text-decoration-color:#000000;letter-spacing:normal;word-spacing:normal;text-transform:none;direction:ltr;block-progression:tb;writing-mode:lr-tb;baseline-shift:baseline;text-anchor:start;white-space:normal;clip-rule:nonzero;display:inline;overflow:visible;visibility:visible;opacity:1;isolation:auto;mix-blend-mode:normal;color-interpolation:sRGB;color-interpolation-filters:linearRGB;solid-color:#000000;solid-opacity:1;fill:#d38d5f;fill-opacity:1;fill-rule:evenodd;stroke:none;stroke-width:8.71248531;stroke-linecap:butt;stroke-linejoin:miter;stroke-miterlimit:4;stroke-dasharray:none;stroke-dashoffset:0;stroke-opacity:1;color-rendering:auto;image-rendering:auto;shape-rendering:auto;text-rendering:auto;enable-background:accumulate"
             d="m 344.42773,189.35352 c 0,0 -18.71075,3.26026 -36.63671,16.98046 -17.92597,13.72021 -35.18228,38.4547 -32.39844,79.46094 l 8.69336,-0.58984 c -2.6071,-38.40282 12.85692,-59.59555 29,-71.95117 16.14308,-12.35561 32.84961,-15.32032 32.84961,-15.32032 l -1.50782,-8.58007 z"
             id="path4471"
             transform="translate(0,52.36216)" />
          <path
             inkscape:connector-curvature="0"
             style="color:#000000;font-style:normal;font-variant:normal;font-weight:normal;font-stretch:normal;font-size:medium;line-height:normal;font-family:sans-serif;text-indent:0;text-align:start;text-decoration:none;text-decoration-line:none;text-decoration-style:solid;text-decoration-color:#000000;letter-spacing:normal;word-spacing:normal;text-transform:none;direction:ltr;block-progression:tb;writing-mode:lr-tb;baseline-shift:baseline;text-anchor:start;white-space:normal;clip-rule:nonzero;display:inline;overflow:visible;visibility:visible;opacity:1;isolation:auto;mix-blend-mode:normal;color-interpolation:sRGB;color-interpolation-filters:linearRGB;solid-color:#000000;solid-opacity:1;fill:#d38d5f;fill-opacity:1;fill-rule:evenodd;stroke:none;stroke-width:8.71248531;stroke-linecap:butt;stroke-linejoin:miter;stroke-miterlimit:4;stroke-dasharray:none;stroke-dashoffset:0;stroke-opacity:1;color-rendering:auto;image-rendering:auto;shape-rendering:auto;text-rendering:auto;enable-background:accumulate"
             d="m 347.69336,190.55859 -8.60156,1.39063 c 0,0 2.67433,16.726 -3.72071,36.0039 -6.39503,19.2779 -21.37539,40.81909 -58.5664,50.95313 l 2.29101,8.40625 c 39.70203,-10.81826 57.44192,-35.20313 64.54492,-56.61523 7.10301,-21.41209 4.05274,-40.13868 4.05274,-40.13868 z"
             id="path4473"
             transform="translate(0,52.36216)" />
        </g>
        <path
           d="m 640.44434,230.49284 -3.89249,0 0,12.63335 q 0,0.43359 -0.30549,0.73907 -0.30549,0.30549 -0.73908,0.30549 -0.43359,0 -0.73908,-0.30549 -0.30548,-0.30548 -0.30548,-0.73907 l 0,-12.63335 -3.8925,0 q -0.43359,0 -0.73907,-0.30549 -0.30549,-0.30548 -0.30549,-0.73907 0,-0.4336 0.30549,-0.73908 0.30548,-0.3055 0.73907,-0.3055 l 9.87412,0 q 0.43359,0 0.73908,0.3055 0.30548,0.30548 0.30548,0.73908 0,0.43359 -0.30548,0.73907 -0.30549,0.30549 -0.73908,0.30549 z"
           style="font-style:normal;font-variant:normal;font-weight:bold;font-stretch:normal;font-size:medium;line-height:125%;font-family:Comfortaa;-inkscape-font-specification:'Comfortaa Bold';text-align:start;letter-spacing:0px;word-spacing:0px;text-anchor:start;fill:#3e6aa8;fill-opacity:1;stroke:none;stroke-width:1px;stroke-linecap:butt;stroke-linejoin:miter;stroke-opacity:1"
           id="path4475"
           inkscape:connector-curvature="0" />
        <path
           d="m 642.95721,243.12619 0,-13.67791 q 0,-0.2168 0.0788,-0.40404 0.0788,-0.19709 0.21679,-0.33504 0.14782,-0.14782 0.33505,-0.22666 0.18724,-0.0788 0.41389,-0.0788 0.61097,0 0.92631,0.56171 l 5.91264,11.81543 5.91264,-11.81543 q 0.35477,-0.56171 0.92632,-0.56171 0.2168,0 0.40403,0.0788 0.19709,0.0788 0.33505,0.22666 0.14781,0.13795 0.22665,0.33504 0.0788,0.18724 0.0788,0.40404 l 0,13.67791 q 0,0.43359 -0.30549,0.73907 -0.30548,0.30549 -0.73908,0.30549 -0.4336,0 -0.73908,-0.30549 -0.30549,-0.30548 -0.30549,-0.73907 l 0,-9.24343 -4.88778,9.76571 q -0.30549,0.52228 -0.90661,0.52228 -0.65039,0 -0.95587,-0.63068 l -4.83851,-9.65731 0,9.24343 q 0,0.43359 -0.30549,0.73907 -0.30548,0.30549 -0.73908,0.30549 -0.4336,0 -0.73908,-0.30549 -0.30549,-0.30548 -0.30549,-0.73907 z"
           style="font-style:normal;font-variant:normal;font-weight:bold;font-stretch:normal;font-size:medium;line-height:125%;font-family:Comfortaa;-inkscape-font-specification:'Comfortaa Bold';text-align:start;letter-spacing:0px;word-spacing:0px;text-anchor:start;fill:#3e6aa8;fill-opacity:1;stroke:none;stroke-width:1px;stroke-linecap:butt;stroke-linejoin:miter;stroke-opacity:1"
           id="path4477"
           inkscape:connector-curvature="0" />
      </g>
      <g
         transform="matrix(0.26458333,0,0,0.26458333,-169.19887,436.74964)"
         id="g4479">
        <path
           inkscape:connector-curvature="0"
           id="path4481"
           d="m 993.22477,215.4659 c -3.0424,0 -5.52052,2.36158 -5.52052,5.40277 l 0,29.07186 c -2.8161,-5.18314 -8.87967,-8.69226 -16.092,-8.69226 -14.64852,0 -24.43167,11.07982 -24.43167,25.84125 0,14.76185 10.12137,25.78237 24.43167,25.78237 6.38342,0 11.89664,-2.64439 15.21091,-7.2238 l 1.23365,3.11284 c 0.75962,2.1352 2.83415,3.64133 5.22684,3.64133 3.02806,2e-5 5.46165,-2.42118 5.46165,-5.46165 l 0,-0.0589 0,-66.01306 c 0,-3.04119 -2.47812,-5.40277 -5.52053,-5.40277 z m -112.46872,0.11705 c -11.41121,0 -20.67257,9.26159 -20.67257,20.67328 l 0,6.4605 -6.75418,0 c -2.4788,0 -4.52242,2.04451 -4.52242,4.52241 0,2.48041 2.04362,4.99203 4.52242,4.99203 l 6.75418,0 0,34.65056 c 0,3.04189 2.47881,5.52053 5.52053,5.52053 3.04314,0 5.52053,-2.47864 5.52053,-5.52053 l 0,-34.65056 7.45864,0 c 2.47859,0 4.52238,-2.51162 4.52238,-4.99203 0,-2.4779 -2.04379,-4.52241 -4.52238,-4.52241 l -7.45864,0 0,-6.4605 c 0,-5.32115 4.31049,-10.33665 9.63151,-10.33665 0.47945,0 0.99524,-0.011 1.46847,0.0589 3.01793,0.44679 5.83678,-0.91651 6.28454,-3.93503 0.44538,-3.01711 -1.68105,-5.77788 -4.69836,-6.22568 -1.00704,-0.14897 -2.03551,-0.23482 -3.05465,-0.23482 z m 32.4195,25.66532 c -14.3103,0 -25.4305,11.53089 -25.4305,25.84125 0,14.31127 11.47281,25.78237 25.78307,25.78237 7.88823,0 15.88195,-3.38702 20.61443,-8.45674 1.01463,-1.01516 1.58548,-2.34252 1.58548,-3.58246 0,-0.90073 -0.31654,-1.79552 -0.88108,-2.58434 -0.90073,-1.12658 -2.289,-1.82031 -3.64134,-1.82031 -1.01416,0 -1.9121,0.2068 -2.70139,0.99812 -3.94415,3.83023 -8.87763,6.22568 -14.62422,6.22568 -8.11263,0 -14.17783,-5.66663 -14.74132,-13.21467 l 34.76832,0 c 2.14117,0 4.11167,-1.4408 4.11167,-3.58246 0,-14.5356 -10.64523,-25.60644 -24.84312,-25.60644 z m 120.27995,0 c -14.3104,0 -25.842,11.53089 -25.842,25.84125 0,14.31127 11.5316,25.78237 25.842,25.78237 14.3116,0 25.7822,-11.47111 25.7822,-25.78237 0,-14.31036 -11.4706,-25.84125 -25.7822,-25.84125 z m 63.0171,0 c -7.5598,0 -12.5579,2.25714 -16.973,7.87007 l -0.4115,-2.64323 c -0.3427,-2.72543 -2.647,-4.81539 -5.4616,-4.81539 -3.0538,0 -5.5205,2.46522 -5.5205,5.52054 l 0,0.0589 0,39.64259 c 0,3.04189 2.4776,5.52053 5.5205,5.52053 3.0423,0 5.5204,-2.47864 5.5204,-5.52053 l 0,-21.26067 c 0,-9.69028 8.4239,-14.56466 17.3257,-14.56466 2.7047,0 4.8743,-2.22841 4.8743,-4.93315 0,-2.70416 -2.1695,-4.87498 -4.8743,-4.87498 z m 32.4777,0 c -14.3113,0 -25.9002,11.53089 -25.9002,25.84125 0,14.31126 11.2666,25.78237 24.9021,25.78237 6.8048,0 12.8899,-3.50554 15.6223,-7.16492 l 1.3508,3.40652 c 0.7219,1.91834 2.5868,3.28877 4.7572,3.28877 2.7973,2e-5 5.0462,-2.25563 5.0502,-5.05091 l 0,-13.21396 0,-7.04787 c 0.1129,-13.8592 -9.7816,-25.84125 -25.7824,-25.84125 z m -215.77475,9.27964 c 7.43713,0 12.84612,5.28533 13.86024,12.15696 0,0 -10.70603,0 -27.72044,0 1.12599,-7.20988 6.31066,-12.15696 13.8602,-12.15696 z m 59.78737,0.52849 c 9.01529,0 14.74133,6.90539 14.74133,16.03312 0,9.12569 -5.72604,15.97493 -14.74133,15.97493 -9.01383,0 -14.74128,-7.18691 -14.74128,-15.97493 0,-8.78806 5.72745,-16.03312 14.74128,-16.03312 z m 60.49258,0 c 9.0146,0 14.8583,7.24506 14.8583,16.03312 0,8.78802 -5.8437,15.97493 -14.8583,15.97493 -9.0138,0 -14.918,-7.18691 -14.918,-15.97493 0,-8.78805 5.9042,-16.03312 14.918,-16.03312 z m 95.4948,0 c 9.0143,0 14.859,7.24507 14.859,16.03312 0,8.78802 -5.8447,15.97493 -14.859,15.97493 -9.0153,0 -14.8584,-7.18691 -14.8584,-15.97493 0,-8.78806 5.8431,-16.03312 14.8584,-16.03312 z"
           style="fill:#3e6aa8;fill-opacity:1;fill-rule:nonzero;stroke:none;stroke-width:1.87936854" />
        <path
           inkscape:connector-curvature="0"
           id="path4483"
           style="font-style:normal;font-variant:normal;font-weight:bold;font-stretch:normal;font-size:medium;line-height:125%;font-family:Comfortaa;-inkscape-font-specification:'Comfortaa Bold';text-align:start;letter-spacing:0px;word-spacing:0px;text-anchor:start;fill:#3e6aa8;fill-opacity:1;stroke:none;stroke-width:0.69568026px;stroke-linecap:butt;stroke-linejoin:miter;stroke-opacity:1"
           d="m 1168.9823,282.38877 -2.7079,0 0,8.78877 q 0,0.30164 -0.2125,0.51416 -0.2126,0.21252 -0.5142,0.21252 -0.3017,0 -0.5142,-0.21252 -0.2125,-0.21252 -0.2125,-0.51416 l 0,-8.78877 -2.708,0 q -0.3015,0 -0.5141,-0.21253 -0.2125,-0.21251 -0.2125,-0.51415 0,-0.30165 0.2125,-0.51417 0.2126,-0.21253 0.5141,-0.21253 l 6.8693,0 q 0.3017,0 0.5141,0.21253 0.2126,0.21252 0.2126,0.51417 0,0.30164 -0.2126,0.51415 -0.2124,0.21253 -0.5141,0.21253 z" />
        <path
           inkscape:connector-curvature="0"
           id="path4485"
           style="font-style:normal;font-variant:normal;font-weight:bold;font-stretch:normal;font-size:medium;line-height:125%;font-family:Comfortaa;-inkscape-font-specification:'Comfortaa Bold';text-align:start;letter-spacing:0px;word-spacing:0px;text-anchor:start;fill:#3e6aa8;fill-opacity:1;stroke:none;stroke-width:0.69568026px;stroke-linecap:butt;stroke-linejoin:miter;stroke-opacity:1"
           d="m 1170.7304,291.17754 0,-9.51545 q 0,-0.15083 0.055,-0.28108 0.055,-0.13712 0.1508,-0.23309 0.1028,-0.10283 0.2331,-0.15768 0.1303,-0.0548 0.288,-0.0548 0.425,0 0.6444,0.39077 l 4.1133,8.21976 4.1133,-8.21976 q 0.2468,-0.39077 0.6444,-0.39077 0.1508,0 0.2811,0.0548 0.1371,0.0548 0.2331,0.15768 0.1028,0.096 0.1576,0.23309 0.055,0.13025 0.055,0.28108 l 0,9.51545 q 0,0.30164 -0.2125,0.51416 -0.2126,0.21252 -0.5142,0.21252 -0.3017,0 -0.5141,-0.21252 -0.2125,-0.21252 -0.2125,-0.51416 l 0,-6.43047 -3.4004,6.79381 q -0.2125,0.36334 -0.6307,0.36334 -0.4525,0 -0.665,-0.43875 l -3.366,-6.7184 0,6.43047 q 0,0.30164 -0.2126,0.51416 -0.2125,0.21252 -0.5142,0.21252 -0.3016,0 -0.5141,-0.21252 -0.2125,-0.21252 -0.2125,-0.51416 z" />
      </g>
    </g>
  </g>
</svg>
